<svg width="18" height="19" viewBox="0 0 18 19" fill="none" xmlns="http://www.w3.org/2000/svg">
<path fill-rule="evenodd" clip-rule="evenodd" d="M5.0625 4.375C5.0625 4.06434 5.31434 3.8125 5.625 3.8125H10.4062C11.2268 3.8125 12.0137 4.13845 12.5939 4.71864C13.1741 5.29883 13.5 6.08574 13.5 6.90625C13.5 7.72676 13.1741 8.51367 12.5939 9.09386C12.5797 9.10801 12.5654 9.12201 12.551 9.13585C12.953 9.30378 13.3225 9.54952 13.6365 9.86351C14.2694 10.4964 14.625 11.3549 14.625 12.25C14.625 13.1451 14.2694 14.0035 13.6365 14.6365C13.0036 15.2694 12.1451 15.625 11.25 15.625H5.625C5.31434 15.625 5.0625 15.3732 5.0625 15.0625V4.375ZM6.1875 10V14.5H11.25C11.8467 14.5 12.419 14.2629 12.841 13.841C13.2629 13.419 13.5 12.8467 13.5 12.25C13.5 11.6533 13.2629 11.081 12.841 10.659C12.419 10.2371 11.8467 10 11.25 10H6.1875ZM10.4062 8.875H6.1875V4.9375H10.4062C10.9284 4.9375 11.4292 5.14492 11.7984 5.51413C12.1676 5.88335 12.375 6.38411 12.375 6.90625C12.375 7.42839 12.1676 7.92915 11.7984 8.29837C11.4292 8.66758 10.9284 8.875 10.4062 8.875Z" fill="#D9D9D9"/>
</svg>
