<svg width="18" height="18" viewBox="0 0 18 18" fill="none" xmlns="http://www.w3.org/2000/svg">
<path fill-rule="evenodd" clip-rule="evenodd" d="M2.8125 3.375C3.12316 3.375 3.375 3.62684 3.375 3.9375V12.375C3.375 12.6857 3.12316 12.9375 2.8125 12.9375C2.50184 12.9375 2.25 12.6857 2.25 12.375V3.9375C2.25 3.62684 2.50184 3.375 2.8125 3.375Z" fill="#D9D9D9"/>
<path fill-rule="evenodd" clip-rule="evenodd" d="M2.25 8.15625C2.25 7.84559 2.50184 7.59375 2.8125 7.59375H10.125C10.4357 7.59375 10.6875 7.84559 10.6875 8.15625C10.6875 8.46691 10.4357 8.71875 10.125 8.71875H2.8125C2.50184 8.71875 2.25 8.46691 2.25 8.15625Z" fill="#D9D9D9"/>
<path fill-rule="evenodd" clip-rule="evenodd" d="M10.125 3.375C10.4357 3.375 10.6875 3.62684 10.6875 3.9375V12.375C10.6875 12.6857 10.4357 12.9375 10.125 12.9375C9.81434 12.9375 9.5625 12.6857 9.5625 12.375V3.9375C9.5625 3.62684 9.81434 3.375 10.125 3.375Z" fill="#D9D9D9"/>
<path fill-rule="evenodd" clip-rule="evenodd" d="M14.3756 7.46443C14.6782 7.34743 15.0025 7.29724 15.3262 7.31729C15.65 7.33734 15.9656 7.42716 16.2514 7.58059C16.5372 7.73402 16.7864 7.94744 16.9821 8.20621C17.1777 8.46498 17.315 8.76299 17.3847 9.0798C17.4543 9.39662 17.4547 9.72475 17.3856 10.0417C17.3167 10.3585 17.18 10.6566 16.9851 10.9157C16.985 10.9158 16.9852 10.9156 16.9851 10.9157L14.625 14.0625H16.875C17.1857 14.0625 17.4375 14.3144 17.4375 14.625C17.4375 14.9357 17.1857 15.1875 16.875 15.1875H13.5C13.2869 15.1875 13.0922 15.0671 12.9969 14.8766C12.9016 14.686 12.9222 14.458 13.05 14.2875L16.086 10.2396C16.1835 10.11 16.2519 9.96083 16.2864 9.80235C16.3209 9.64387 16.3207 9.4798 16.2859 9.3214C16.2511 9.16299 16.1824 9.01398 16.0846 8.8846C15.9868 8.75521 15.8622 8.6485 15.7193 8.57179C15.5764 8.49507 15.4186 8.45016 15.2567 8.44014C15.0948 8.43011 14.9327 8.45521 14.7814 8.51371C14.6301 8.57221 14.4933 8.66273 14.3803 8.77905C14.2672 8.89538 14.1807 9.03478 14.1266 9.18768C14.023 9.48054 13.7015 9.63394 13.4087 9.5303C13.1158 9.42666 12.9624 9.10523 13.0661 8.81237C13.1743 8.50657 13.3473 8.22778 13.5734 7.99512C13.7994 7.76246 14.0731 7.58143 14.3756 7.46443Z" fill="#D9D9D9"/>
</svg>
