<svg width="18" height="18" viewBox="0 0 18 18" fill="none" xmlns="http://www.w3.org/2000/svg">
<path fill-rule="evenodd" clip-rule="evenodd" d="M2.8125 3.375C3.12316 3.375 3.375 3.62684 3.375 3.9375V12.375C3.375 12.6857 3.12316 12.9375 2.8125 12.9375C2.50184 12.9375 2.25 12.6857 2.25 12.375V3.9375C2.25 3.62684 2.50184 3.375 2.8125 3.375Z" fill="#D9D9D9"/>
<path fill-rule="evenodd" clip-rule="evenodd" d="M2.25 8.15625C2.25 7.84559 2.50184 7.59375 2.8125 7.59375H10.125C10.4357 7.59375 10.6875 7.84559 10.6875 8.15625C10.6875 8.46691 10.4357 8.71875 10.125 8.71875H2.8125C2.50184 8.71875 2.25 8.46691 2.25 8.15625Z" fill="#D9D9D9"/>
<path fill-rule="evenodd" clip-rule="evenodd" d="M10.125 3.375C10.4357 3.375 10.6875 3.62684 10.6875 3.9375V12.375C10.6875 12.6857 10.4357 12.9375 10.125 12.9375C9.81434 12.9375 9.5625 12.6857 9.5625 12.375V3.9375C9.5625 3.62684 9.81434 3.375 10.125 3.375Z" fill="#D9D9D9"/>
<path fill-rule="evenodd" clip-rule="evenodd" d="M12.9375 7.875C12.9375 7.56434 13.1893 7.3125 13.5 7.3125H16.875C17.0847 7.3125 17.2771 7.42919 17.3739 7.61523C17.4708 7.80127 17.4561 8.02574 17.3358 8.19757L15.8568 10.3104C15.9404 10.3443 16.0224 10.3827 16.1023 10.4255C16.47 10.6228 16.7833 10.9079 17.0143 11.2555C17.2452 11.603 17.3867 12.0024 17.426 12.4178C17.4653 12.8333 17.4013 13.252 17.2396 13.6368C17.0779 14.0215 16.8237 14.3603 16.4994 14.623C16.1752 14.8857 15.791 15.0642 15.3811 15.1425C14.9712 15.2208 14.5482 15.1966 14.15 15.072C13.7517 14.9473 13.3904 14.7262 13.0983 14.4281C12.8808 14.2063 12.8844 13.8501 13.1063 13.6327C13.3281 13.4152 13.6842 13.4188 13.9017 13.6406C14.064 13.8062 14.2647 13.9291 14.486 13.9983C14.7072 14.0676 14.9422 14.081 15.1699 14.0375C15.3976 13.994 15.6111 13.8948 15.7912 13.7489C15.9714 13.6029 16.1126 13.4147 16.2024 13.201C16.2922 12.9872 16.3278 12.7546 16.306 12.5238C16.2841 12.293 16.2056 12.0711 16.0773 11.878C15.949 11.6849 15.7749 11.5265 15.5706 11.417C15.3663 11.3074 15.138 11.25 14.9062 11.25C14.6964 11.25 14.5041 11.1333 14.4073 10.9472C14.3105 10.7612 14.3252 10.5367 14.4454 10.3649L15.7946 8.4375H13.5C13.1893 8.4375 12.9375 8.18566 12.9375 7.875Z" fill="#D9D9D9"/>
</svg>
