<svg width="18" height="18" viewBox="0 0 18 18" fill="none" xmlns="http://www.w3.org/2000/svg">
<path fill-rule="evenodd" clip-rule="evenodd" d="M2.8125 3.375C3.12316 3.375 3.375 3.62684 3.375 3.9375V12.375C3.375 12.6857 3.12316 12.9375 2.8125 12.9375C2.50184 12.9375 2.25 12.6857 2.25 12.375V3.9375C2.25 3.62684 2.50184 3.375 2.8125 3.375Z" fill="#D9D9D9"/>
<path fill-rule="evenodd" clip-rule="evenodd" d="M2.25 8.15625C2.25 7.84559 2.50184 7.59375 2.8125 7.59375H10.125C10.4357 7.59375 10.6875 7.84559 10.6875 8.15625C10.6875 8.46691 10.4357 8.71875 10.125 8.71875H2.8125C2.50184 8.71875 2.25 8.46691 2.25 8.15625Z" fill="#D9D9D9"/>
<path fill-rule="evenodd" clip-rule="evenodd" d="M10.125 3.375C10.4357 3.375 10.6875 3.62684 10.6875 3.9375V12.375C10.6875 12.6857 10.4357 12.9375 10.125 12.9375C9.81434 12.9375 9.5625 12.6857 9.5625 12.375V3.9375C9.5625 3.62684 9.81434 3.375 10.125 3.375Z" fill="#D9D9D9"/>
<path fill-rule="evenodd" clip-rule="evenodd" d="M16.0155 7.37906C16.1984 7.47694 16.3126 7.66755 16.3126 7.875V14.625C16.3126 14.9357 16.0607 15.1875 15.7501 15.1875C15.4394 15.1875 15.1876 14.9357 15.1876 14.625V8.92604L14.3746 9.46803C14.1161 9.64035 13.7669 9.5705 13.5945 9.31202C13.4222 9.05353 13.4921 8.7043 13.7505 8.53197L15.438 7.40697C15.6106 7.2919 15.8326 7.28117 16.0155 7.37906Z" fill="#D9D9D9"/>
</svg>
