<svg width="18" height="18" viewBox="0 0 18 18" fill="none" xmlns="http://www.w3.org/2000/svg">
<path fill-rule="evenodd" clip-rule="evenodd" d="M10.8653 3.40377C11.16 3.50201 11.3193 3.82057 11.221 4.11529L7.84604 14.2403C7.7478 14.535 7.42925 14.6943 7.13453 14.596C6.83981 14.4978 6.68053 14.1792 6.77877 13.8845L10.1538 3.75953C10.252 3.46481 10.5706 3.30553 10.8653 3.40377Z" fill="#D9D9D9"/>
<path fill-rule="evenodd" clip-rule="evenodd" d="M3.9375 14.0625C3.9375 13.7518 4.18934 13.5 4.5 13.5H10.125C10.4357 13.5 10.6875 13.7518 10.6875 14.0625C10.6875 14.3732 10.4357 14.625 10.125 14.625H4.5C4.18934 14.625 3.9375 14.3732 3.9375 14.0625Z" fill="#D9D9D9"/>
<path fill-rule="evenodd" clip-rule="evenodd" d="M7.3125 3.9375C7.3125 3.62684 7.56434 3.375 7.875 3.375H13.5C13.8107 3.375 14.0625 3.62684 14.0625 3.9375C14.0625 4.24816 13.8107 4.5 13.5 4.5H7.875C7.56434 4.5 7.3125 4.24816 7.3125 3.9375Z" fill="#D9D9D9"/>
</svg>
