<svg width="18" height="18" viewBox="0 0 18 18" fill="none" xmlns="http://www.w3.org/2000/svg">
<path fill-rule="evenodd" clip-rule="evenodd" d="M2.25 9C2.25 8.68934 2.50184 8.4375 2.8125 8.4375H15.1875C15.4982 8.4375 15.75 8.68934 15.75 9C15.75 9.31066 15.4982 9.5625 15.1875 9.5625H2.8125C2.50184 9.5625 2.25 9.31066 2.25 9Z" fill="black"/>
<path fill-rule="evenodd" clip-rule="evenodd" d="M9.00012 3.9375C6.99574 3.9375 5.84379 5.07091 5.84379 6.1875V6.19127H5.84378C5.8429 6.32274 5.86284 6.45351 5.90287 6.57874C5.99745 6.87465 5.83424 7.19121 5.53833 7.2858C5.24242 7.38038 4.92586 7.21717 4.83128 6.92126C4.75528 6.6835 4.71732 6.43524 4.71879 6.18565C4.72 4.19682 6.66132 2.8125 9.00012 2.8125C10.772 2.8125 12.2016 3.57796 12.8682 4.79173C13.0177 5.06403 12.9182 5.406 12.6459 5.55554C12.3736 5.70508 12.0316 5.60557 11.8821 5.33327C11.4574 4.56001 10.4626 3.9375 9.00012 3.9375Z" fill="black"/>
<path fill-rule="evenodd" clip-rule="evenodd" d="M9.19129 8.84228C9.27834 8.54407 9.59066 8.37289 9.88887 8.45994C10.7357 8.70713 11.6218 9.01421 12.299 9.51016C13.0075 10.029 13.5 10.7665 13.5 11.8124C13.5 12.8178 12.9285 13.675 12.1112 14.2588C11.2929 14.8434 10.1911 15.1874 9 15.1874C7.80889 15.1874 6.70713 14.8434 5.88876 14.2588C5.07147 13.675 4.5 12.8178 4.5 11.8124C4.5 11.5017 4.75184 11.2499 5.0625 11.2499C5.37316 11.2499 5.625 11.5017 5.625 11.8124C5.625 12.3602 5.9349 12.9092 6.54267 13.3434C7.14936 13.7768 8.01634 14.0624 9 14.0624C9.98366 14.0624 10.8506 13.7768 11.4573 13.3434C12.0651 12.9092 12.375 12.3602 12.375 11.8124C12.375 11.187 12.1074 10.7643 11.6343 10.4178C11.1299 10.0484 10.4129 9.78487 9.57363 9.53987C9.27541 9.45282 9.10423 9.1405 9.19129 8.84228Z" fill="black"/>
</svg>
