<svg width="18" height="18" viewBox="0 0 18 18" fill="none" xmlns="http://www.w3.org/2000/svg">
<path fill-rule="evenodd" clip-rule="evenodd" d="M3.9375 15.75C3.9375 15.4393 4.18934 15.1875 4.5 15.1875H13.5C13.8107 15.1875 14.0625 15.4393 14.0625 15.75C14.0625 16.0607 13.8107 16.3125 13.5 16.3125H4.5C4.18934 16.3125 3.9375 16.0607 3.9375 15.75Z" fill="#D9D9D9"/>
<path fill-rule="evenodd" clip-rule="evenodd" d="M5.0625 3.375C5.37316 3.375 5.625 3.62684 5.625 3.9375V9.5625C5.625 10.4576 5.98058 11.3161 6.61351 11.949C7.24645 12.5819 8.10489 12.9375 9 12.9375C9.89511 12.9375 10.7536 12.5819 11.3865 11.949C12.0194 11.3161 12.375 10.4576 12.375 9.5625V3.9375C12.375 3.62684 12.6268 3.375 12.9375 3.375C13.2482 3.375 13.5 3.62684 13.5 3.9375V9.5625C13.5 10.756 13.0259 11.9006 12.182 12.7445C11.3381 13.5884 10.1935 14.0625 9 14.0625C7.80653 14.0625 6.66193 13.5884 5.81802 12.7445C4.97411 11.9006 4.5 10.756 4.5 9.5625V3.9375C4.5 3.62684 4.75184 3.375 5.0625 3.375Z" fill="#D9D9D9"/>
</svg>
